<svg xmlns="http://www.w3.org/2000/svg" viewBox="0 0 400 300" width="406" height="306" class="illustration"><g id="_488_dna_flatline" data-name="#488_dna_flatline"><path d="M250.91,242.79l-2.12,15.49s94.85,1.13,93.72,0,0-23.86,0-23.86Z" fill="#231f20"></path><path d="M319.46,259.38c-6.2,0-14,0-24-.09-23.1-.14-46.46-.41-46.69-.41a.62.62,0,0,1-.44-.21.58.58,0,0,1-.14-.47l2.11-15.49a.6.6,0,0,1,.54-.51l91.6-8.37a.64.64,0,0,1,.46.17.55.55,0,0,1,.19.45c-.53,10.54-.75,22.34-.14,23.46a.55.55,0,0,1,.1.63C342.88,259,342.71,259.38,319.46,259.38Zm22.51-.86a.71.71,0,0,0,.12.18A.7.7,0,0,1,342,258.52Zm-92.5-.82c34.94.41,86.42.77,92.31.17-.69-3.33-.26-15.11.11-22.79l-90.46,8.26Z" fill="#231f20"></path><g id="eaxZPU"><path d="M112.68,97.72c-9.93-7.75-21.07-14-30.2-22.67C76.76,69.6,71.92,63,69.65,55.43c-1-3.43-1.55-7.09-3.44-10.12-3.54-5.66-11.15-5.69-12.69,1.42A17.2,17.2,0,0,0,54,54.4C60.25,79.74,84.74,92.81,103.6,108A51.61,51.61,0,0,1,112.68,97.72Z" fill="#fc9068"></path><path d="M130.34,116.05c-3.51,3-7.58,5.33-11.36,8,4.94,7.18,8.13,15.38,7.93,24.49-.35,16.76-11.64,31.67-25.75,42.27C92,197.65,82.07,203.52,73.43,211c-11.29,9.81-19.68,23.14-20,38.43-.08,5,7.63,5.49,10.67,3.27,2-1.45,2.8-4,3.26-6.43,4.85-25.36,30.86-37,48.72-52.23,13.5-11.5,23.89-25.83,24.57-44.14C141.15,137.23,137.13,125.89,130.34,116.05Z" fill="#fc9068"></path><path d="M53.27,147.45A56,56,0,0,1,57.8,125a47.17,47.17,0,0,1,6.7-11c2.23-2.75,4.61-5.39,7.1-7.91,1.9-1.92,4.08-3.57,6.12-5.34a30.18,30.18,0,0,1,3.07-2.62,2.25,2.25,0,0,1,2-.17c3,2.08,5.91,4.28,8.83,6.47a1.76,1.76,0,0,1,.74.86,1.71,1.71,0,0,1-.66,1.49,49.67,49.67,0,0,1-5.79,4.59c-13.47,10.13-21,26.65-18.81,43.46a35,35,0,0,0,3.46,10.85,63.68,63.68,0,0,0,4,6.37c2.58,4,6.14,7.18,9.62,10.36,2,1.87,4.42,3.38,6.54,5.19.59.5,1.53.84,1.53,2s-1.08,1.57-1.76,2.1c-2.46,1.95-5,3.8-7.62,5.56a2.2,2.2,0,0,1-2,0c-2.89-2.4-5.71-4.9-8.49-7.45a56,56,0,0,1-5.3-5.26A58.86,58.86,0,0,1,53.27,147.45Z" fill="#fc9068"></path><path d="M133.91,41.83a17.79,17.79,0,0,1,2.83,0c2.41.37,3.77,2.09,3.75,4.66a37.86,37.86,0,0,1-1.67,10.62,45,45,0,0,1-4.32,10.33c-1.3,2.18-2.54,4.4-4,6.48a50.7,50.7,0,0,1-4,4.9c-1.69,1.89-3.42,3.75-5.25,5.51-1.54,1.48-3.22,2.81-4.86,4.18-1.07.89-2.19,1.7-3.24,2.61a1.51,1.51,0,0,1-2.29,0c-1.33-1.08-2.83-1.93-4.22-2.93-1.58-1.12-3.14-2.27-4.66-3.46a1.6,1.6,0,0,1,.12-2.2c6.06-4.83,12.11-9.73,16.83-16a37.84,37.84,0,0,0,7.69-17.4,16.23,16.23,0,0,1,1-4.86c1.28-2.65,3.69-2.62,6.22-2.62Z" fill="#fc9068"></path><path d="M133.75,253.94c-2.62-.22-5.22-1.55-6.26-3.65s-1.21-4.49-1.65-6.78c-2.24-11.87-11.36-21.23-21.1-28.37a6.35,6.35,0,0,1-2.67-3c-.89-2.91,5.9-6,7.79-7.28,6-4,16.36,10.82,19.07,14.63a71.15,71.15,0,0,1,11.2,24.64c.48,2,.87,4.25.19,6.25C139.4,253.13,136.56,254.18,133.75,253.94Z" fill="#fc9068"></path><path d="M109.8,72l-1.48-1.56a1.53,1.53,0,0,1,2.11.88C110.47,71.44,110,71.72,109.8,72Z" fill="#fc9068"></path><path d="M85.75,70.56c-.54.51-1.07,1-1.6,1.55a1.08,1.08,0,0,1,.27-1.72C84.67,70.2,85.29,70.49,85.75,70.56Z" fill="#fc9068"></path><path d="M116.2,236.18h-40a1.5,1.5,0,1,1,0-3h40a1.5,1.5,0,0,1,0,3Z" fill="#fc9068"></path><path d="M121.34,250.36H71.65a1.5,1.5,0,1,1,0-3h49.69a1.5,1.5,0,1,1,0,3Z" fill="#fc9068"></path><path d="M107.77,222.25H86.27a1.5,1.5,0,1,1,0-3h21.5a1.5,1.5,0,0,1,0,3Z" fill="#fc9068"></path><path d="M113.48,176.05H80.72a1.5,1.5,0,0,1,0-3h32.76a1.5,1.5,0,1,1,0,3Z" fill="#fc9068"></path><path d="M124.05,147H69.84a1.5,1.5,0,0,1,0-3h54.21a1.5,1.5,0,1,1,0,3Z" fill="#fc9068"></path><path d="M119.58,133.89H74.31a1.5,1.5,0,0,1,0-3h45.27a1.5,1.5,0,0,1,0,3Z" fill="#fc9068"></path><path d="M109.8,73.61H84.15a1.5,1.5,0,0,1,0-3H109.8a1.5,1.5,0,0,1,0,3Z" fill="#fc9068"></path><path d="M121.05,59.31H72.84a1.5,1.5,0,0,1,0-3h48.21a1.5,1.5,0,1,1,0,3Z" fill="#fc9068"></path><path d="M121.05,46.34H72.84a1.5,1.5,0,0,1,0-3h48.21a1.5,1.5,0,0,1,0,3Z" fill="#fc9068"></path><path d="M146.61,82.05c-1.57-1.42-3.2-2.76-4.87-4.06a47.67,47.67,0,0,0-8.36,9.45l.83.66a69.32,69.32,0,0,1,13.33,14.09c3.48-2.43,7.22-4.56,10.46-7.33A73.59,73.59,0,0,0,146.61,82.05Z" fill="#fc9068"></path><path d="M133.38,109.22a1.48,1.48,0,0,1-1.15-.54,1.5,1.5,0,0,1,.19-2.11l13.3-11.06a1.5,1.5,0,1,1,1.92,2.31l-13.3,11.06A1.5,1.5,0,0,1,133.38,109.22Z" fill="#fc9068"></path><path d="M130.07,96.67a1.5,1.5,0,0,1-.88-2.71l14-10.16A1.5,1.5,0,1,1,145,86.22L131,96.38A1.43,1.43,0,0,1,130.07,96.67Z" fill="#fc9068"></path><path d="M121.62,162.27H72.57a1.5,1.5,0,0,1,0-3h49.05a1.5,1.5,0,0,1,0,3Z" fill="#fc9068"></path></g><path d="M207.28,125.05l-5.81-7.75s-.19-21.3-2.93-23.92-22.2-8.46-23-6.67.58,3.83,3.07,4.84S190,94.29,191,96.28s1.26,7-1.54,7.93S181.24,94,178.58,93.28s-4.93,0-4.71,1.92,6.88,17.14,8.95,21.87,10.68,13.08,10.68,13.08Z" fill="#fff"></path><path d="M193.5,130.65a.5.5,0,0,1-.35-.14c-.36-.35-8.7-8.49-10.79-13.24-5.89-13.46-8.83-20.66-9-22a2.15,2.15,0,0,1,.75-2c1-.82,2.68-1,4.58-.47,1.34.37,3,2.63,4.89,5.26s4.44,6.11,5.67,5.68a2.51,2.51,0,0,0,1.45-1.49,8.41,8.41,0,0,0-.2-5.76c-.55-1.18-5.49-2.55-8.45-3.37-1.53-.43-2.86-.8-3.63-1.11a5.83,5.83,0,0,1-3.34-3,3.15,3.15,0,0,1,0-2.52,1.1,1.1,0,0,1,.86-.57c3.36-.67,20.29,4.55,22.93,7.07s3.05,21.27,3.08,24.12l5.71,7.62a.5.5,0,0,1-.23.77l-13.78,5.1ZM176.66,93.5a2.92,2.92,0,0,0-1.88.53,1.18,1.18,0,0,0-.41,1.12c.1.85,1.72,5.3,8.91,21.72,1.82,4.16,9,11.35,10.34,12.7l12.86-4.76-5.41-7.21a.43.43,0,0,1-.1-.29c-.07-8.48-.87-21.75-2.77-23.57C195.34,91,177.38,86,176,87a2.26,2.26,0,0,0,.05,1.67,4.91,4.91,0,0,0,2.8,2.43,36.19,36.19,0,0,0,3.52,1.07c4.72,1.31,8.39,2.43,9.09,3.92a9.25,9.25,0,0,1,.21,6.56,3.42,3.42,0,0,1-2,2.05c-1.93.68-4.3-2.58-6.81-6-1.57-2.16-3.35-4.61-4.35-4.89A6.84,6.84,0,0,0,176.66,93.5Z" fill="#231f20"></path><path d="M184.61,96.69,152,85.48s-5.24,2.23-5.35,1.93,5.25-3.53,5.36-3.3,26.61,7.63,33.51,9.56a1.59,1.59,0,0,1,1.07,2.06h0A1.59,1.59,0,0,1,184.61,96.69Z"></path><path d="M284.09,55.75c.21-.36.44-.72.67-1.07,7.7-11.92,24.06-13,34.73-4.18A9,9,0,0,0,322,52.21a15.79,15.79,0,0,0,3.52.46c4.12.54,7,4.21,9.3,7.67,6.68,10.13,7.87,26.88,7.86,38.77,0,9.31-2.22,18.88-7.92,26.23-8.08,10.44-21.84,14.84-35,15.95-14.56,1.23-30.8-1.66-40.09-12.94-3.91-4.73-6.31-11.3-4.22-17.06,1.82-5,6.52-8.32,10-12.34C275.94,87.11,276,69.24,284.09,55.75Z" fill="#fff"></path><path d="M293.58,142.14c-14.9,0-27.22-4.75-34.36-13.41-3.6-4.36-6.62-11.28-4.31-17.65,1.34-3.69,4.17-6.48,6.92-9.17,1.09-1.08,2.23-2.2,3.24-3.35,5.8-6.59,8.41-15.31,10.93-23.74,2-6.61,4-13.44,7.58-19.37h0c.22-.37.45-.73.68-1.09a22.19,22.19,0,0,1,15.48-10,25.51,25.51,0,0,1,20.12,5.67l.29.24a7.55,7.55,0,0,0,2.06,1.37,7.27,7.27,0,0,0,2.14.32c.41,0,.83.05,1.25.1,4.32.57,7.34,4.33,9.71,7.94,5.3,8,8,21.19,8,39.1,0,7.4-1.41,18-8,26.58-9,11.67-24.25,15.24-35.41,16.18Q296.64,142.14,293.58,142.14Zm-9-86.08c-3.49,5.8-5.51,12.56-7.46,19.1-2.56,8.55-5.2,17.4-11.17,24.18-1,1.18-2.19,2.32-3.31,3.41-2.77,2.72-5.39,5.3-6.63,8.74-2.14,5.89.72,12.38,4.11,16.49,7.87,9.54,22.3,14.17,39.59,12.72,10.93-.92,25.8-4.4,34.57-15.72,6.44-8.3,7.79-18.65,7.8-25.87,0-17.67-2.6-30.6-7.76-38.44-2.23-3.38-5-6.91-8.89-7.42-.38,0-.77-.07-1.16-.09a6.36,6.36,0,0,1-4.88-2l-.29-.23a24.32,24.32,0,0,0-19.19-5.41A21.06,21.06,0,0,0,285.25,55l-.66,1.06Z" fill="#231f20"></path><path d="M346.8,248.55c3.39-22,16.27-112.54,1.44-127-16.91-16.5-63.41-15.78-71.93-.87-4.62,8.09-17.65,21.71-18.64,39.41-1.42,25.12-8.91,72.37-10.7,88.47Z" fill="#fc9068"></path><polygon points="309.26 248.55 319.65 120.67 293.24 123.47 278.87 248.55 309.26 248.55" fill="#fff"></polygon><path d="M294.75,107l-1.51,16.51s5,5.75,11.76,6.3c11,.88,14.65-9.1,14.65-9.1.82-14.78,1.9-29.53,2.13-44.31a1.39,1.39,0,0,0-.21-.92,1.36,1.36,0,0,0-1.25-.26L316,75.7l-.42-8.18a23.47,23.47,0,0,0-2.85,4.33l-12.12-1.06-1.41-7.34c-.92,1-.94,2.49-1.11,3.84s-.71,2.9-2,3.26a4.06,4.06,0,0,1-1.8-.07l-9.13-1.8c-.08,0-1.63,24.65-1.52,26.72C284.07,104.07,294.75,107,294.75,107Z" fill="#fff"></path><path d="M306.35,130.41c-.45,0-.92,0-1.4,0-6.9-.56-11.95-6.26-12.16-6.5a.63.63,0,0,1-.15-.45l1.48-16c-2.16-.69-10.68-3.93-11.11-11.95-.07-1.27.45-10.33.68-14.17.77-12.78.8-12.81,1-13a.63.63,0,0,1,.51-.14l9.12,1.8a3.81,3.81,0,0,0,1.53.08c1.18-.33,1.51-2,1.59-2.76l.07-.56a5.91,5.91,0,0,1,1.2-3.61.55.55,0,0,1,.59-.17.58.58,0,0,1,.42.46l1.33,6.9,11.27,1a25.61,25.61,0,0,1,2.74-4.09.59.59,0,0,1,.65-.18.57.57,0,0,1,.4.53l.39,7.55,3.71-.45a1.92,1.92,0,0,1,1.77.47,1.88,1.88,0,0,1,.35,1.31c-.17,11.31-.86,22.8-1.52,33.91-.21,3.47-.42,7-.61,10.43a.9.9,0,0,1,0,.16C320.17,121,316.62,130.41,306.35,130.41Zm-12.5-7.15c.91,1,5.45,5.45,11.19,5.91,10.06.79,13.64-7.65,14-8.62.19-3.45.4-6.9.6-10.34.67-11.1,1.35-22.57,1.52-33.86a1.11,1.11,0,0,0-.06-.53c-.05-.06-.22-.12-.73,0l-4.34.52a.59.59,0,0,1-.46-.14.61.61,0,0,1-.21-.42l-.33-6.58a22,22,0,0,0-1.81,3,.58.58,0,0,1-.58.32l-12.12-1.06a.59.59,0,0,1-.53-.48l-1.07-5.59a11,11,0,0,0-.21,1.48l-.07.57c-.24,2-1.14,3.39-2.45,3.76a4.51,4.51,0,0,1-2.08-.06l-8.48-1.67c-.31,3.86-1.55,24.32-1.46,26,.44,8.13,10.61,11,10.72,11a.6.6,0,0,1,.43.63Z" fill="#231f20"></path><path d="M314.25,88.37a8.59,8.59,0,0,1,9.49-5.1c4.72,1.21,4.14,6.62,2.29,10a8.76,8.76,0,0,1-12,3.39" fill="#fff"></path><path d="M318.37,98.36a9.39,9.39,0,0,1-4.65-1.22.59.59,0,1,1,.59-1A8.16,8.16,0,0,0,325.51,93c1.07-2,1.76-4.82.88-6.86a3.9,3.9,0,0,0-2.8-2.25,8,8,0,0,0-8.78,4.73.59.59,0,0,1-.76.36.6.6,0,0,1-.36-.76c1.36-3.81,6.31-6.48,10.2-5.48a5.1,5.1,0,0,1,3.59,2.93c1.11,2.57.19,5.86-.93,7.9a9.26,9.26,0,0,1-8.18,4.84Z" fill="#231f20"></path><path d="M296.2,78.2s-6.92,7.8-5.76,9.48,5.12,1.21,5.12,1.21" fill="#fff"></path><path d="M294.33,89.55c-1.39,0-3.48-.23-4.37-1.53-1.29-1.86,3.62-7.76,5.8-10.21a.58.58,0,0,1,.83,0,.59.59,0,0,1,.05.84c-3.46,3.9-6.18,8.07-5.71,8.74.78,1.13,3.63,1.07,4.57,1a.58.58,0,0,1,.65.52.59.59,0,0,1-.52.66A10.75,10.75,0,0,1,294.33,89.55Z" fill="#231f20"></path><path d="M294.75,107s6.17,1.74,14.1-2.44c0,0-3.88,11.36-14.92,11.37Z" fill="#231f20"></path><path d="M293.93,116.48a.58.58,0,0,1-.59-.64l.82-8.94a.62.62,0,0,1,.25-.43.59.59,0,0,1,.5-.08c.06,0,6.06,1.62,13.67-2.39a.59.59,0,0,1,.83.72c0,.11-4.15,11.75-15.48,11.76Zm1.35-8.8-.7,7.6c7.71-.34,11.67-6.63,13.09-9.52A21.37,21.37,0,0,1,295.28,107.68Z" fill="#231f20"></path><ellipse cx="304.78" cy="79.28" rx="2.62" ry="1.15" transform="translate(224.47 383.79) rotate(-89.81)" fill="#231f20"></ellipse><ellipse cx="289.92" cy="78.18" rx="2.62" ry="1.15" transform="translate(195.58 363.25) rotate(-86.78)" fill="#231f20"></ellipse><path d="M296.75,94.75a16.75,16.75,0,0,1-5.34-1,5.58,5.58,0,0,0-.65-.2.6.6,0,1,1,.16-1.18,6.92,6.92,0,0,1,.87.25c2.51.84,9.16,3.08,12.77-4.4a.59.59,0,0,1,.79-.28.6.6,0,0,1,.28.8C303.3,93.53,299.79,94.75,296.75,94.75Z" fill="#231f20"></path><path d="M236,162.09c-4.33-2.17-29.14-44.09-29.14-44.09l-18.14,14.86c.36,2.74,20.39,74.59,38.76,71.24s57.83-26.88,57.83-26.88l-9-56.55S240.33,164.25,236,162.09Z" fill="#fc9068"></path><path d="M248.8,235h-.11a.61.61,0,0,1-.48-.69l15.63-90.54a.59.59,0,0,1,.68-.48.58.58,0,0,1,.48.68l-15.62,90.54A.6.6,0,0,1,248.8,235Z" fill="#231f20"></path><path d="M167,204.75a.54.54,0,0,1-.27-.07l-47.39-26.37a.55.55,0,0,1-.22-.75.56.56,0,0,1,.76-.22l47.39,26.37a.55.55,0,0,1-.27,1Z" fill="#d1d3d4"></path><path d="M189.84,204.77H174.58a.56.56,0,0,1,0-1.11h15.26a.56.56,0,1,1,0,1.11Z" fill="#d1d3d4"></path><path d="M185,210.46H174.58a.56.56,0,0,1,0-1.12H185a.56.56,0,0,1,0,1.12Z" fill="#d1d3d4"></path><path d="M41.4,78.54H26.14a.55.55,0,0,1-.55-.55.56.56,0,0,1,.55-.56H41.4A.56.56,0,0,1,42,78,.55.55,0,0,1,41.4,78.54Z" fill="#d1d3d4"></path><path d="M36.51,84.23H26.14a.56.56,0,0,1,0-1.11H36.51a.56.56,0,1,1,0,1.11Z" fill="#d1d3d4"></path><path d="M67.51,117.87a.54.54,0,0,1-.32-.11l-38-26.87a.55.55,0,0,1,.64-.9l38,26.87a.55.55,0,0,1,.13.77A.57.57,0,0,1,67.51,117.87Z" fill="#d1d3d4"></path><polygon points="283.59 237.39 278.86 182.48 230.93 187.31 234.89 242.79 283.59 237.39" fill="#fff"></polygon><path d="M234.89,243.38a.67.67,0,0,1-.38-.13.63.63,0,0,1-.21-.42l-4-55.48a.59.59,0,0,1,.53-.63l47.93-4.83a.56.56,0,0,1,.43.14.58.58,0,0,1,.22.4l4.73,54.9a.58.58,0,0,1-.52.64L235,243.38Zm-3.33-55.54,3.88,54.29L283,236.86l-4.63-53.73Z" fill="#231f20"></path><path d="M298.29,210.54s-10.77-12-14-10.68-18.76,5.64-18.94,8.34,9.19.18,9.19.18-13.51,4-13,6.67,12.43-.72,12.43-.72-12.07,3.24-11.35,5.76,13.69,0,13.69,0-14.05,4.15-11,5.41,15.17-4.34,16.32-2.89,16.65,4.33,16.65,4.33Z" fill="#fff"></path><path d="M298.29,227.53h-.11c-3.69-.69-15.8-3-17-4.55-.55-.3-3.87.7-6.3,1.42-3.92,1.18-8,2.4-9.78,1.65-.73-.3-.82-.78-.81-1,0-1,2.35-2.18,5.33-3.32-3.62.32-7.11.19-7.57-1.43a1.48,1.48,0,0,1,.17-1.18,8.14,8.14,0,0,1,3.48-2.47,7.35,7.35,0,0,1-4-.41,1.52,1.52,0,0,1-.75-1c-.12-.6.18-2.47,6.8-5.12a4.17,4.17,0,0,1-2.49-.61,1.46,1.46,0,0,1-.54-1.27c.14-2.08,5.53-4.24,15.44-7.52,1.67-.55,3.12-1,3.86-1.33,3.48-1.41,12.85,8.78,14.7,10.84a.58.58,0,0,1,.15.39v16.4a.6.6,0,0,1-.21.45A.59.59,0,0,1,298.29,227.53Zm-17.47-5.76a1.55,1.55,0,0,1,1.29.47c.7.79,8.35,2.61,15.59,4V210.77c-4.37-4.84-11.25-11.16-13.22-10.36-.78.31-2.17.77-3.94,1.36-4,1.31-14.51,4.8-14.63,6.47a.28.28,0,0,0,.12.28c1,.8,5.45.06,8.32-.71a.6.6,0,0,1,.73.41.59.59,0,0,1-.4.73c-7.05,2.07-12.8,4.81-12.56,6,0,0,0,.14.21.25,1.42.87,7-.21,10.69-1.2l.79-.23a.61.61,0,0,1,.73.42.59.59,0,0,1-.41.73l-.78.21c-3.76,1.08-9.27,3.07-10.1,4.54-.09.17-.07.25-.06.28.3,1.07,6.38.87,13-.42a.59.59,0,0,1,.28,1.15c-4.71,1.39-10,3.36-10.9,4.3,1.44.55,5.61-.7,9-1.7C277.59,222.35,279.59,221.77,280.82,221.77Z" fill="#231f20"></path><path d="M350.68,125.29c.39,1,36.2,86.16,18,97.32s-74.79,6.85-74.79,6.85l2.27-25.24,45.45-6.11Z" fill="#fc9068"></path><path d="M304.92,85.39c-3.17,0-7.92-.55-9.05-1.32a4.44,4.44,0,0,1-1.56-2h0c-.37.62-.93,1.55-1.93,1.55h0c-.08,0-8.15-.34-10.48-2.47-2.11-1.94-1.52-8.09-1.45-8.79a.59.59,0,0,1,.65-.52l30.18,2.85a.59.59,0,0,1,.52.72c-.46,2.13-2.15,9.16-4.4,9.75A11.26,11.26,0,0,1,304.92,85.39Zm-10.59-4.82a.79.79,0,0,1,.39.12,1.94,1.94,0,0,1,.66.91,3.36,3.36,0,0,0,1.15,1.49c1,.7,8.45,1.5,10.53,1,1-.26,2.49-4.34,3.39-8.2l-28.92-2.74c-.15,2-.16,6,1.13,7.2,1.66,1.53,8,2.13,9.7,2.17.35,0,.68-.57.93-1S293.85,80.57,294.33,80.57Z" fill="#231f20"></path><path d="M323.74,83.86a.6.6,0,0,1-.29-.08l-12.76-7.11a.58.58,0,0,1-.23-.8.58.58,0,0,1,.8-.23L324,82.75a.59.59,0,0,1-.29,1.11Z" fill="#231f20"></path><path d="M298.29,204.81a.59.59,0,0,1-.09-1.18l53.32-8.44a.59.59,0,1,1,.18,1.17l-53.32,8.44Z" fill="#231f20"></path><path d="M344.4,196.37h0a.61.61,0,0,1-.59-.6c.15-14-3.74-49.48-3.78-49.83a.59.59,0,1,1,1.18-.13c0,.36,3.93,35.86,3.79,50A.61.61,0,0,1,344.4,196.37Z" fill="#231f20"></path><rect x="247.85" y="182.48" width="14.59" height="5.18" transform="translate(-15.42 23.38) rotate(-5.09)" fill="#231f20"></rect><path d="M248.11,188.9a.57.57,0,0,1-.38-.14.59.59,0,0,1-.21-.4l-.46-5.17a.59.59,0,0,1,.53-.64l14.54-1.3a.65.65,0,0,1,.43.14.59.59,0,0,1,.21.4l.46,5.17a.59.59,0,0,1-.54.64l-14.53,1.29Zm.18-5.22.35,4L262,186.47l-.36-4Z" fill="#231f20"></path><path d="M53.27,198.11a.56.56,0,0,1-.46-.23.55.55,0,0,1,.13-.77L74,182a.56.56,0,1,1,.65.9L53.59,198A.55.55,0,0,1,53.27,198.11Z" fill="#d1d3d4"></path><path d="M44.47,196.2H29.52a.56.56,0,0,1,0-1.12h15a.56.56,0,0,1,0,1.12Z" fill="#d1d3d4"></path><path d="M44.47,202.83H29.52a.56.56,0,0,1,0-1.11h15a.56.56,0,0,1,0,1.11Z" fill="#d1d3d4"></path><path d="M37,209.47H29.52a.56.56,0,0,1,0-1.11H37a.56.56,0,1,1,0,1.11Z" fill="#d1d3d4"></path></g></svg>