<svg width="80" height="80" viewBox="0 0 80 80" fill="none" xmlns="http://www.w3.org/2000/svg">
<rect width="80" height="80" fill="#EE6C4D"/>
<path d="M14.2881 19.6504V28H11.4756V6.67188H19.3418C21.6758 6.67188 23.502 7.26758 24.8203 8.45898C26.1484 9.65039 26.8125 11.2275 26.8125 13.1904C26.8125 15.2607 26.1631 16.8574 24.8643 17.9805C23.5752 19.0938 21.7246 19.6504 19.3125 19.6504H14.2881ZM14.2881 17.3506H19.3418C20.8457 17.3506 21.998 16.999 22.7988 16.2959C23.5996 15.583 24 14.5576 24 13.2197C24 11.9502 23.5996 10.9346 22.7988 10.1729C21.998 9.41113 20.8994 9.01562 19.5029 8.98633H14.2881V17.3506ZM39.5859 28C39.4297 27.6875 39.3027 27.1309 39.2051 26.3301C37.9453 27.6387 36.4414 28.293 34.6934 28.293C33.1309 28.293 31.8467 27.8535 30.8408 26.9746C29.8447 26.0859 29.3467 24.9629 29.3467 23.6055C29.3467 21.9551 29.9717 20.6758 31.2217 19.7676C32.4814 18.8496 34.249 18.3906 36.5244 18.3906H39.1611V17.1455C39.1611 16.1982 38.8779 15.4463 38.3115 14.8896C37.7451 14.3232 36.9102 14.04 35.8066 14.04C34.8398 14.04 34.0293 14.2842 33.375 14.7725C32.7207 15.2607 32.3936 15.8516 32.3936 16.5449H29.6689C29.6689 15.7539 29.9473 14.9922 30.5039 14.2598C31.0703 13.5176 31.832 12.9316 32.7891 12.502C33.7559 12.0723 34.8154 11.8574 35.9678 11.8574C37.7939 11.8574 39.2246 12.3164 40.2598 13.2344C41.2949 14.1426 41.832 15.3975 41.8711 16.999V24.2939C41.8711 25.749 42.0566 26.9062 42.4277 27.7656V28H39.5859ZM35.0889 25.9346C35.9385 25.9346 36.7441 25.7148 37.5059 25.2754C38.2676 24.8359 38.8193 24.2646 39.1611 23.5615V20.3096H37.0371C33.7168 20.3096 32.0566 21.2812 32.0566 23.2246C32.0566 24.0742 32.3398 24.7383 32.9062 25.2168C33.4727 25.6953 34.2002 25.9346 35.0889 25.9346ZM53.7803 14.582C53.3701 14.5137 52.9258 14.4795 52.4473 14.4795C50.6699 14.4795 49.4639 15.2363 48.8291 16.75V28H46.1191V12.1504H48.7559L48.7998 13.9814C49.6885 12.5654 50.9482 11.8574 52.5791 11.8574C53.1064 11.8574 53.5068 11.9258 53.7803 12.0625V14.582ZM60.6943 8.3125V12.1504H63.6533V14.2451H60.6943V24.0742C60.6943 24.709 60.8262 25.1875 61.0898 25.5098C61.3535 25.8223 61.8027 25.9785 62.4375 25.9785C62.75 25.9785 63.1797 25.9199 63.7266 25.8027V28C63.0137 28.1953 62.3203 28.293 61.6465 28.293C60.4355 28.293 59.5225 27.9268 58.9072 27.1943C58.292 26.4619 57.9844 25.4219 57.9844 24.0742V14.2451H55.0986V12.1504H57.9844V8.3125H60.6943Z" fill="white"/>
<line x1="45" y1="41" x2="18" y2="41" stroke="white" stroke-width="2"/>
<line x1="45" y1="65" x2="18" y2="65" stroke="white" stroke-width="2"/>
<line x1="19" y1="40" x2="19" y2="64" stroke="white" stroke-width="2"/>
<line x1="44.7071" y1="40.2929" x2="57.435" y2="53.0208" stroke="white" stroke-width="2"/>
<line x1="43.2929" y1="65.435" x2="57.435" y2="51.2928" stroke="white" stroke-width="2"/>
</svg>
