<svg width="151" height="353" viewBox="0 0 151 353" fill="none" xmlns="http://www.w3.org/2000/svg">
<path d="M5.35403 346.483C5.13454 347.169 5.06201 347.892 5.14087 348.606C5.21973 349.321 5.44834 350.012 5.81279 350.639C6.38421 351.173 7.06713 351.583 7.81602 351.842C8.56491 352.101 9.36254 352.204 10.1557 352.142C21.4951 351.952 32.4139 347.972 41.0456 340.882C43.1559 339.261 45.3579 337.05 44.8992 334.486C44.7206 333.71 44.3488 332.988 43.816 332.382C43.2831 331.776 42.6052 331.304 41.8408 331.007C40.3182 330.404 38.6851 330.103 37.0391 330.123C28.8731 329.976 21.7471 333.248 14.0093 334.663C7.40316 335.753 6.51622 340.116 5.35403 346.483Z" fill="#473F47"/>
<path d="M74.6881 346.483C74.4658 347.17 74.3946 347.895 74.4788 348.611C74.5631 349.326 74.801 350.017 75.1774 350.639C75.7407 351.175 76.4179 351.587 77.1624 351.847C77.9069 352.106 78.7009 352.207 79.4897 352.142C90.8397 351.959 101.77 347.979 110.41 340.882C112.52 339.261 114.753 337.05 114.294 334.486C114.113 333.711 113.741 332.99 113.208 332.385C112.676 331.779 111.999 331.306 111.236 331.007C109.724 330.403 108.101 330.103 106.465 330.123C98.2989 329.976 91.1728 333.248 83.4045 334.663C76.4619 335.753 75.6973 340.116 74.6881 346.483Z" fill="#473F47"/>
<path d="M93.9254 336.814C93.0079 338.141 90.1942 338.377 87.1358 338.2H86.9217C83.8311 337.965 80.7637 337.501 77.7465 336.814C77.7465 336.814 76.0949 278.98 72.7919 266.659C69.4888 254.338 59.3961 212.539 59.3961 212.539C59.3961 212.539 58.6315 217.757 57.3775 225.391C55.7872 235.03 53.371 248.56 50.6491 260.233C45.8168 281.103 22.6647 336.873 22.6647 336.873H8.77954C8.77954 336.873 25.0197 266.718 25.0197 257.61C25.0197 248.501 18.9029 179.938 18.9029 179.938L31.1365 178.994L86.5241 174.72C86.5241 174.72 94.7206 208.324 98.4213 222.267C102.122 236.209 93.9254 336.814 93.9254 336.814Z" fill="#EE6C4D"/>
<path d="M87.1358 338.2H86.9217C83.8311 337.964 80.7637 337.501 77.7465 336.814C77.7465 336.814 76.0949 278.98 72.7919 266.659C69.4888 254.338 59.3961 212.539 59.3961 212.539L44.8992 215.487L42.3914 218.906C42.3914 218.906 36.9474 242.252 34.1642 260.616C31.6258 277.271 19.9427 327.765 17.8018 336.873H8.62659C8.62659 336.873 24.8667 266.718 24.8667 257.609C24.8667 248.501 18.7499 179.938 18.7499 179.938L30.9835 178.994L70.4369 188.397C70.4369 188.397 69.6417 195.207 81.1719 225.804C92.7021 256.401 87.1358 338.2 87.1358 338.2Z" fill="url(#paint0_linear)"/>
<path d="M106.159 113.585C107.048 114.321 108.152 114.774 109.319 114.879C110.486 114.985 111.658 114.739 112.673 114.174C114.527 112.976 116.092 111.408 117.261 109.576L122.736 102.059C125.032 99.2348 126.877 96.0952 128.21 92.7446C128.908 89.0034 129.931 85.3255 131.269 81.7497C131.489 81.2662 131.864 80.8634 132.339 80.6001C133.195 80.2169 134.143 80.6 135.061 80.8653C136.014 80.9389 136.971 80.7836 137.846 80.4132C138.722 80.0428 139.488 79.4689 140.077 78.743C141.361 77.3576 142.279 75.7953 143.594 74.3509C144.909 72.9065 146.652 72.1696 148.243 73.0539C149.833 73.9382 149.711 76.5912 149.527 78.5956C149.467 81.9408 149.713 85.2847 150.261 88.5883C150.689 93.3046 149.925 98.581 145.062 100.969C143.412 101.591 141.799 102.3 140.23 103.091C137.778 105.052 135.945 107.636 134.939 110.549C131.315 118.218 126.69 125.409 121.176 131.949C118.301 135.368 114.631 138.847 110.074 138.906C104.477 138.906 101.449 132.273 99.247 128.235C98.6841 127.334 98.3197 126.33 98.1766 125.287C98.1406 124.269 98.3609 123.258 98.8189 122.34C100.69 119.014 103.178 116.047 106.159 113.585Z" fill="#FBC4D6"/>
<path d="M6.27168 113.585C3.66117 122.048 2.62573 130.89 3.21328 139.701C4.28372 154.44 19.6981 156.179 19.6981 156.179L22.7565 118.625L6.27168 113.585Z" fill="#FBC4D6"/>
<path d="M59.9466 62.2063C59.9466 62.2063 79.2145 67.5122 84.1997 72.4938C89.1849 77.4754 86.31 174.661 86.31 174.661C86.31 174.661 52.6676 216.843 18.7805 179.879C18.7805 179.879 11.2568 80.6589 15.7221 75.0288C20.1874 69.3987 35.6935 51.9483 59.9466 62.2063Z" fill="#FDFFFF"/>
<path d="M15.8444 75.0288C15.8444 75.0288 2.93796 97.1071 2.11219 106.776C1.48677 111.038 1.48677 115.365 2.11219 119.628L15.8444 130.475V75.0288Z" fill="#FDFFFF"/>
<path d="M84.1997 72.4937C84.1997 72.4937 100.042 85.4636 106.71 101.971C113.377 118.478 97.1368 132.096 97.1368 132.096C97.1368 132.096 68.9689 105.184 72.8531 90.3273C76.7372 75.4709 80.0403 72.759 84.1997 72.4937Z" fill="#FDFFFF"/>
<path d="M67.3479 117.8C66.919 114.007 67.8005 110.184 69.8558 106.923C77.8383 111.079 86.0959 115.471 91.4787 122.487C94.1701 125.995 97.5955 130.681 101.877 129.296C103.094 128.78 104.11 127.906 104.78 126.799C105.451 125.693 105.741 124.41 105.609 123.135C105.294 120.58 104.395 118.124 102.978 115.943C94.4148 100.114 84.6279 83.2234 67.8985 75.7658C63.126 73.8353 58.1817 72.3257 53.1264 71.2558L38.9966 67.8069C36.497 67.0034 33.8398 66.7614 31.2282 67.0995C28.1465 67.9875 25.4166 69.7553 23.3987 72.1696C15.0241 80.8858 8.28686 90.94 3.48854 101.882C1.2735 105.982 0.089624 110.526 0.0325317 115.147C0.0387301 117.442 0.739399 119.684 2.04864 121.601C3.35788 123.517 5.2188 125.024 7.40329 125.936L15.8445 110.313C15.1309 127.213 15.1309 144.103 15.8445 160.984C16.2421 169.473 16.8843 178.287 21.319 185.656C23.8971 189.836 27.5525 193.303 31.9306 195.72C36.3087 198.137 41.2607 199.423 46.3062 199.451C50.0617 199.454 53.7793 198.727 57.2369 197.314C60.6945 195.901 63.8213 193.831 66.4304 191.227C70.651 186.305 68.9077 180.851 68.6019 174.809C67.8985 155.943 67.4703 136.783 67.3479 117.8Z" fill="url(#paint1_linear)"/>
<path d="M71.1098 40.9828C69.4888 44.8148 70.1311 49.8259 66.8586 52.4493C65.2682 53.7168 63.005 54.159 61.5675 55.6034C57.8363 59.4059 62.1486 66.7752 58.295 70.3419C57.245 71.2365 55.9494 71.8199 54.5638 72.0221C50.9725 72.729 47.2377 72.1969 44.0123 70.5187C42.7986 69.9595 41.7478 69.1189 40.9539 68.0722C40.2979 66.936 39.8918 65.6817 39.7611 64.3875C38.7519 58.9638 37.712 53.54 36.9168 48.0867C35.8309 42.9714 35.8309 37.6971 36.9168 32.5818C37.7474 29.6072 39.2853 26.8598 41.4088 24.5574C43.5322 22.2551 46.1827 20.4609 49.1504 19.3172C54.625 17.2538 63.8002 17.4601 67.5008 22.766C68.7843 25.0511 69.8097 27.4624 70.5592 29.9584C71.5595 31.7033 72.3496 33.5527 72.9142 35.4706C72.8551 37.4337 72.2303 39.3424 71.1098 40.9828Z" fill="#FBC4D6"/>
<path d="M74.688 18.2266C74.4187 19.5224 73.9551 20.7736 73.3118 21.9407C73.0297 22.5761 72.5622 23.1189 71.9661 23.503C71.6632 23.6898 71.2997 23.763 70.9445 23.7087C70.5894 23.6544 70.2673 23.4763 70.0393 23.2082C68.6966 25.4519 66.8591 27.3839 64.6565 28.8678C64.2715 29.1381 63.9573 29.4914 63.739 29.8995C63.2496 30.9312 63.739 32.1397 63.739 33.2599C63.4943 35.3822 61.017 36.3844 59.3655 37.7993C58.544 38.4874 57.8804 39.333 57.417 40.282C56.9536 41.2311 56.7006 42.2629 56.6741 43.3115C55.4201 43.3115 55.1449 41.1302 53.8909 41.0713C53.1875 41.0713 52.6676 41.6608 52.3312 42.2504C51.1988 43.8271 50.6691 45.7336 50.8325 47.6447C50.9361 48.5835 51.3904 49.454 52.1106 50.094C52.8309 50.7339 53.768 51.0996 54.7473 51.123C54.2526 53.6992 53.3445 56.1854 52.0559 58.4922C51.489 59.6877 50.589 60.7081 49.4562 61.4399C48.3453 61.937 47.1332 62.1888 45.9085 62.1768C43.5886 62.4346 41.2383 62.193 39.0271 61.4694C36.6866 60.4662 34.7752 58.7177 33.6137 56.5172C31.8831 52.7303 30.5709 48.7782 29.699 44.7264C28.6408 40.6241 27.3233 36.5881 25.7536 32.6409C24.9207 30.3942 24.4464 28.0387 24.3468 25.6548C24.3056 24.4658 24.5395 23.2829 25.0315 22.1919C25.5234 21.1008 26.2611 20.129 27.1911 19.3467C27.9829 18.8566 28.7391 18.3149 29.4543 17.7255C30.2264 16.8648 30.8091 15.862 31.167 14.7778C31.9644 12.8294 33.2581 11.106 34.9288 9.76669C36.3969 8.77678 38.0033 7.99273 39.6999 7.438L58.7232 0.275085C58.293 1.08292 58.1429 2.00242 58.295 2.89854C60.8331 2.06339 63.5826 2.03658 66.1377 2.82208C68.6928 3.60758 70.9184 5.16378 72.486 7.26113C73.6242 8.84074 74.408 10.6319 74.7871 12.52C75.1663 14.4081 75.1325 16.3517 74.688 18.2266Z" fill="#472906"/>
<defs>
<linearGradient id="paint0_linear" x1="-7.33828" y1="29.0152" x2="103.569" y2="600.918" gradientUnits="userSpaceOnUse">
<stop offset="0.01"/>
<stop offset="0.13" stop-opacity="0.69"/>
<stop offset="0.25" stop-opacity="0.32"/>
<stop offset="1" stop-opacity="0"/>
</linearGradient>
<linearGradient id="paint1_linear" x1="16069.2" y1="25309.5" x2="3176.44" y2="9432.19" gradientUnits="userSpaceOnUse">
<stop offset="0.01"/>
<stop offset="0.13" stop-opacity="0.69"/>
<stop offset="0.25" stop-opacity="0.32"/>
<stop offset="1" stop-opacity="0"/>
</linearGradient>
</defs>
</svg>
