<svg width="785" height="651" viewBox="0 0 785 651" fill="none" xmlns="http://www.w3.org/2000/svg">
<path opacity="0.18" d="M756.16 556.615C710.284 640.889 623.915 661.435 531.429 646.549C493.413 640.418 455.611 630.926 417.412 627.271C403.782 625.875 390.063 625.451 376.368 626.004C348.995 627.212 322.051 633.049 294.77 635.141C219.297 640.423 144.724 616.695 87.349 569.142C69.3778 554.19 53.6317 536.921 40.5555 517.823C-55.4172 376.775 30.8603 191.424 174.452 117.083C202.528 102.551 232.256 91.7916 260.24 77.0826C297.767 57.333 332.052 30.5678 371.322 15.1808C504.515 -37.023 605.473 53.0883 645.752 168.137C662.482 215.949 675.113 266.237 702.302 308.418C730.194 351.69 773.44 387.063 783.044 438.589C790.384 478.058 776.101 519.945 756.16 556.615Z" fill="#EE6C4D"/>
</svg>
