<svg width="115" height="379" viewBox="0 0 115 379" fill="none" xmlns="http://www.w3.org/2000/svg">
<path d="M19.1929 378.646C17.3514 378.649 15.5545 378.1 14.0516 377.074C12.5486 376.049 11.4142 374.598 10.8057 372.922C10.1972 371.247 10.1448 369.431 10.6558 367.726C11.1667 366.021 12.2157 364.511 13.6572 363.406C35.3413 346.752 91.4324 295.609 90.4843 259.5C89.7503 230.524 69.7177 213.28 48.3089 195.004C23.2606 173.574 -5.09079 149.256 2.12704 104.038C5.70537 81.724 23.1383 57.6413 53.967 32.4679C67.8544 21.1507 82.6412 10.9006 98.1915 1.81179C100.213 0.773817 102.572 0.529565 104.776 1.13017C106.979 1.73077 108.857 3.12966 110.015 5.03404C111.172 6.93841 111.521 9.20063 110.988 11.3472C110.454 13.4937 109.08 15.3582 107.153 16.5503C92.4434 25.2142 78.4366 34.94 65.2525 45.6441C38.3079 67.7224 22.4348 88.7985 19.6823 106.632C13.9325 142.624 35.3413 160.958 60.1144 182.182C82.2266 201.135 107.306 222.654 108.254 259.028C108.835 281.372 94.7355 308.108 66.3535 338.616C53.4969 352.379 39.5826 365.189 24.7286 376.936C23.1407 378.1 21.1868 378.703 19.1929 378.646Z" fill="#EE6C4D"/>
<path d="M99.109 378.646C97.378 378.652 95.6846 378.159 94.2462 377.231C78.1176 366.693 62.8614 354.966 48.6148 342.153C17.2662 313.797 1.24017 288.004 0.995495 265.513C0.567319 229.08 26.3496 206.913 51.3674 185.454C77.1191 163.287 101.464 142.388 95.7448 106.573C92.8087 88.7101 77.5473 67.5456 51.3674 45.5557C38.6838 34.8909 25.1664 25.1839 10.9353 16.5208C9.93121 15.9402 9.05562 15.1746 8.35851 14.2678C7.6614 13.361 7.15643 12.3308 6.87243 11.2359C6.58843 10.141 6.53096 9.00296 6.7033 7.88668C6.87565 6.77039 7.27445 5.69776 7.8769 4.73002C8.47935 3.76227 9.27368 2.91837 10.2145 2.24649C11.1554 1.57462 12.2243 1.08793 13.3603 0.814206C14.4963 0.540486 15.6771 0.485102 16.8353 0.65121C17.9935 0.817318 19.1064 1.20167 20.1105 1.78231C23.5665 3.81623 104.767 51.8933 113.086 103.891C120.273 148.902 89.842 175.078 62.9587 198.217C39.9901 217.996 18.2754 236.537 18.6119 265.277C19.0095 301.21 80.2693 347.813 103.85 362.905C105.455 363.913 106.679 365.395 107.338 367.13C107.997 368.864 108.055 370.757 107.504 372.526C106.953 374.295 105.823 375.844 104.282 376.942C102.741 378.04 100.872 378.628 98.9561 378.617L99.109 378.646Z" fill="#EE6C4D"/>
<path d="M92.2276 103.773H15.7676C13.5014 103.645 11.3716 102.686 9.81414 101.095C8.25665 99.5029 7.38916 97.3976 7.38916 95.2096C7.38916 93.0217 8.25665 90.9164 9.81414 89.3246C11.3716 87.7328 13.5014 86.7747 15.7676 86.6465H92.2276C94.4939 86.7747 96.6236 87.7328 98.1811 89.3246C99.7386 90.9164 100.606 93.0217 100.606 95.2096C100.606 97.3976 99.7386 99.5029 98.1811 101.095C96.6236 102.686 94.4939 103.645 92.2276 103.773Z" fill="#EE6C4D"/>
<path d="M94.552 141.828H18.092C16.8814 141.896 15.669 141.725 14.5294 141.326C13.3897 140.927 12.3467 140.307 11.4644 139.505C10.5822 138.703 9.87922 137.736 9.39878 136.663C8.91834 135.59 8.67053 134.433 8.67053 133.265C8.67053 132.096 8.91834 130.939 9.39878 129.866C9.87922 128.793 10.5822 127.826 11.4644 127.024C12.3467 126.222 13.3897 125.602 14.5294 125.203C15.669 124.804 16.8814 124.633 18.092 124.701H94.552C96.8182 124.83 98.948 125.788 100.505 127.38C102.063 128.971 102.93 131.077 102.93 133.265C102.93 135.453 102.063 137.558 100.505 139.15C98.948 140.741 96.8182 141.699 94.552 141.828Z" fill="#EE6C4D"/>
<path d="M92.2276 248.77H15.7676C13.5014 248.642 11.3716 247.684 9.81414 246.092C8.25665 244.5 7.38916 242.395 7.38916 240.207C7.38916 238.019 8.25665 235.914 9.81414 234.322C11.3716 232.73 13.5014 231.772 15.7676 231.644H92.2276C94.4939 231.772 96.6236 232.73 98.1811 234.322C99.7386 235.914 100.606 238.019 100.606 240.207C100.606 242.395 99.7386 244.5 98.1811 246.092C96.6236 247.684 94.4939 248.642 92.2276 248.77Z" fill="#EE6C4D"/>
<path d="M94.552 286.825H18.092C16.8814 286.893 15.669 286.723 14.5294 286.323C13.3897 285.924 12.3467 285.304 11.4644 284.502C10.5822 283.701 9.87922 282.733 9.39878 281.66C8.91834 280.587 8.67053 279.431 8.67053 278.262C8.67053 277.093 8.91834 275.937 9.39878 274.864C9.87922 273.79 10.5822 272.823 11.4644 272.021C12.3467 271.219 13.3897 270.6 14.5294 270.2C15.669 269.801 16.8814 269.63 18.092 269.699H94.552C96.8182 269.827 98.948 270.785 100.505 272.377C102.063 273.969 102.93 276.074 102.93 278.262C102.93 280.45 102.063 282.555 100.505 284.147C98.948 285.739 96.8182 286.697 94.552 286.825Z" fill="#EE6C4D"/>
<path d="M57.6371 52.1585L71.9198 40.3677C71.9198 40.3677 88.4352 56.698 93.3286 63.1535C98.222 69.6089 87.5788 85.5855 87.5788 85.5855C87.5788 85.5855 71.7057 60.7363 57.6371 52.1585Z" fill="url(#paint0_linear)"/>
<path d="M44.2718 191.555L57.5759 180.059C48.9633 172.652 40.7944 164.778 33.1087 156.478L22.6184 170.715C22.6184 170.715 37.9104 186.692 44.2718 191.555Z" fill="url(#paint1_linear)"/>
<path d="M57.6371 203.317L71.9198 191.526C71.9198 191.526 88.4352 207.856 93.3286 214.311C98.222 220.767 87.5788 236.743 87.5788 236.743C87.5788 236.743 71.7057 211.983 57.6371 203.317Z" fill="url(#paint2_linear)"/>
<path d="M68.5861 336.405L56.3525 348.845C56.3525 348.845 78.7094 366.384 85.3156 371.159C91.9217 375.934 96.9986 358.248 96.9986 358.248C96.9986 358.248 74.7029 341.682 68.5861 336.405Z" fill="url(#paint3_linear)"/>
<path d="M43.2932 337.231L55.2821 324.585C47.1992 316.919 39.7926 308.617 33.1393 299.765L21.4257 313.472C21.4257 313.472 36.9317 332.367 43.2932 337.231Z" fill="url(#paint4_linear)"/>
<defs>
<linearGradient id="paint0_linear" x1="5891.66" y1="1111.58" x2="8933.89" y2="2594.09" gradientUnits="userSpaceOnUse">
<stop offset="0.01"/>
<stop offset="0.13" stop-opacity="0.69"/>
<stop offset="0.25" stop-opacity="0.32"/>
<stop offset="1" stop-opacity="0"/>
</linearGradient>
<linearGradient id="paint1_linear" x1="6501.99" y1="3232.09" x2="5647.1" y2="2551.99" gradientUnits="userSpaceOnUse">
<stop offset="0.01"/>
<stop offset="0.13" stop-opacity="0.69"/>
<stop offset="0.25" stop-opacity="0.32"/>
<stop offset="1" stop-opacity="0"/>
</linearGradient>
<linearGradient id="paint2_linear" x1="5891.66" y1="3581.5" x2="8933.89" y2="5064.02" gradientUnits="userSpaceOnUse">
<stop offset="0.01"/>
<stop offset="0.13" stop-opacity="0.69"/>
<stop offset="0.25" stop-opacity="0.32"/>
<stop offset="1" stop-opacity="0"/>
</linearGradient>
<linearGradient id="paint3_linear" x1="118192" y1="-112873" x2="119873" y2="-110095" gradientUnits="userSpaceOnUse">
<stop offset="0.01"/>
<stop offset="0.13" stop-opacity="0.69"/>
<stop offset="0.25" stop-opacity="0.32"/>
<stop offset="1" stop-opacity="0"/>
</linearGradient>
<linearGradient id="paint4_linear" x1="6276.07" y1="5408.16" x2="5404.71" y2="4779.54" gradientUnits="userSpaceOnUse">
<stop offset="0.01"/>
<stop offset="0.13" stop-opacity="0.69"/>
<stop offset="0.25" stop-opacity="0.32"/>
<stop offset="1" stop-opacity="0"/>
</linearGradient>
</defs>
</svg>
