<svg width="521" height="226" viewBox="0 0 521 226" fill="none" xmlns="http://www.w3.org/2000/svg">
<path opacity="0.18" d="M479.783 97.6828L423.539 145.2L330.411 217.271C316.78 215.875 303.062 215.451 289.367 216.004C261.994 217.212 235.05 223.049 207.769 225.141C132.296 230.423 57.7231 206.694 0.347961 159.142L162.046 147.882H231.257L263.676 98.5376L479.783 97.6828Z" fill="#EE6C4D"/>
<path d="M391.823 131.139C462.597 131.139 519.97 116.49 519.97 98.4196C519.97 80.3492 462.597 65.7002 391.823 65.7002C321.05 65.7002 263.676 80.3492 263.676 98.4196C263.676 116.49 321.05 131.139 391.823 131.139Z" fill="#EE6C4D"/>
<path d="M391.823 120.881C440.419 120.881 479.814 110.825 479.814 98.4196C479.814 86.0145 440.419 75.9582 391.823 75.9582C343.228 75.9582 303.833 86.0145 303.833 98.4196C303.833 110.825 343.228 120.881 391.823 120.881Z" fill="url(#paint0_linear)"/>
<path d="M391.823 130.402C462.597 130.402 519.97 115.753 519.97 97.6827C519.97 79.6122 462.597 64.9633 391.823 64.9633C321.05 64.9633 263.676 79.6122 263.676 97.6827C263.676 115.753 321.05 130.402 391.823 130.402Z" fill="#EE6C4D"/>
<path d="M391.823 120.144C440.419 120.144 479.814 110.088 479.814 97.6826C479.814 85.2775 440.419 75.2211 391.823 75.2211C343.228 75.2211 303.833 85.2775 303.833 97.6826C303.833 110.088 343.228 120.144 391.823 120.144Z" fill="url(#paint1_linear)"/>
<path d="M519.879 86.4519C519.879 104.433 462.564 119.171 391.793 119.171C321.021 119.171 263.646 104.433 263.646 86.3634V33.688C285.055 23.1352 342.155 53.7324 391.793 53.7324C444.795 53.7324 497.583 17.4167 517.034 29.1486C523.518 33.0985 519.879 81.9419 519.879 86.4519Z" fill="#EE6C4D"/>
<path d="M519.879 86.4519C519.786 88.9757 518.792 91.3913 517.065 93.2906C504.831 108.029 453.389 119.201 391.67 119.201C369.598 119.299 347.55 117.732 325.731 114.514C298.787 110.417 278.326 103.814 269.029 95.973C266.254 93.9733 264.348 91.0538 263.676 87.7784C263.58 87.3721 263.529 86.957 263.523 86.5403V33.688C284.932 23.1058 342.033 53.7029 391.67 53.7029C444.673 53.7029 497.491 17.3872 517.065 29.1191C523.518 33.0985 519.879 81.9419 519.879 86.4519Z" fill="url(#paint2_linear)"/>
<path d="M391.823 66.437C462.597 66.437 519.97 51.788 519.97 33.7175C519.97 15.647 462.597 0.997986 391.823 0.997986C321.05 0.997986 263.676 15.647 263.676 33.7175C263.676 51.788 321.05 66.437 391.823 66.437Z" fill="white"/>
<path d="M391.823 56.179C440.419 56.179 479.814 46.1227 479.814 33.7176C479.814 21.3125 440.419 11.2561 391.823 11.2561C343.228 11.2561 303.833 21.3125 303.833 33.7176C303.833 46.1227 343.228 56.179 391.823 56.179Z" fill="url(#paint3_linear)"/>
<path opacity="0.15" d="M327.597 113.866L325.854 114.514C298.909 110.417 278.448 103.814 269.151 95.9731C266.377 93.9734 264.47 91.0539 263.799 87.7785C263.702 87.3722 263.651 86.9571 263.646 86.5404V39.5836L306.463 58.1246C306.463 58.1246 303.191 86.1277 313.895 102.9C316.966 108.008 321.823 111.895 327.597 113.866Z" fill="white"/>
<defs>
<linearGradient id="paint0_linear" x1="421.918" y1="-33.1951" x2="383.01" y2="149.841" gradientUnits="userSpaceOnUse">
<stop/>
<stop offset="1" stop-opacity="0"/>
</linearGradient>
<linearGradient id="paint1_linear" x1="33910.8" y1="4699.6" x2="33747.2" y2="1793.28" gradientUnits="userSpaceOnUse">
<stop/>
<stop offset="1" stop-opacity="0"/>
</linearGradient>
<linearGradient id="paint2_linear" x1="67153.5" y1="22134.5" x2="59711.4" y2="2712.29" gradientUnits="userSpaceOnUse">
<stop/>
<stop offset="1" stop-opacity="0"/>
</linearGradient>
<linearGradient id="paint3_linear" x1="33910.8" y1="5610.45" x2="33747.2" y2="2704.57" gradientUnits="userSpaceOnUse">
<stop/>
<stop offset="1" stop-opacity="0"/>
</linearGradient>
</defs>
</svg>
